<svg xmlns="http://www.w3.org/2000/svg" width="231" height="60" fill="none" xmlns:v="https://vecta.io/nano"><g clip-path="url(#A)"><g fill="#0070c5"><path d="M83.575 18.509h8.057c2.539 0 4.572.602 6.06 1.776 1.524 1.173 2.286 2.769 2.286 4.796 0 1.137-.289 2.202-.835 3.16a5.7 5.7 0 0 1-2.213 2.202c2.576 1.065 3.884 2.949 3.884 5.65 0 2.31-.872 4.122-2.612 5.434-1.597 1.245-3.627 1.847-6.097 1.847H83.58V18.509h-.004zm8.02 10.055c.909 0 1.634-.283 2.25-.818s.909-1.245.909-2.095-.289-1.528-.909-2.059c-.579-.499-1.341-.746-2.323-.746h-2.828v5.718h2.901zm.216 10.513c1.051 0 1.924-.283 2.612-.89.725-.602 1.088-1.384 1.088-2.378s-.363-1.776-1.088-2.382c-.689-.531-1.561-.818-2.612-.818h-3.122v6.464h3.122v.004zm40.964 4.301h-5.009v-11.12c0-1.101-.252-1.955-.798-2.593-.542-.602-1.272-.926-2.176-.926s-1.671.319-2.213.926c-.579.638-.872 1.528-.872 2.629v11.084h-5.009V32.083c0-2.238-.978-3.34-2.938-3.34-.909 0-1.671.319-2.213.926-.579.638-.872 1.492-.872 2.593v11.12h-5.008V24.801h4.898v2.166c.399-.746.978-1.349 1.777-1.811.908-.535 1.96-.818 3.158-.818 2.396 0 4.136.926 5.188 2.773 1.198-1.847 3.085-2.773 5.624-2.773 2.102 0 3.737.638 4.861 1.883 1.052 1.209 1.598 2.841 1.598 4.904v12.257l.004-.004zm5.591-25.687h5.009v9.057c.146-.212.362-.427.615-.638.326-.319.725-.567 1.161-.818 1.125-.638 2.433-.958 3.847-.958 2.723 0 4.899.926 6.533 2.737s2.466 4.157 2.466 7.034-.873 5.187-2.613 6.998c-1.703 1.811-3.957 2.737-6.675 2.737-1.414 0-2.685-.319-3.847-.958-.399-.247-.799-.499-1.125-.782-.146-.108-.289-.247-.399-.355s-.183-.18-.253-.283v1.919h-4.719v-25.69zm9.724 21.813c1.414 0 2.575-.499 3.484-1.456s1.377-2.274 1.377-3.906-.436-2.913-1.34-3.942-2.071-1.528-3.521-1.528-2.576.463-3.448 1.42c-.941.994-1.414 2.346-1.414 4.05 0 1.528.436 2.769 1.308 3.802.909 1.029 2.07 1.564 3.558 1.564l-.004-.004zm13.317.89l2.939-2.558c1.198 1.349 2.649 2.027 4.352 2.027 1.561 0 2.323-.567 2.323-1.668 0-.602-.473-1.137-1.414-1.564-.326-.179-.799-.355-1.414-.566l-.799-.319-.835-.319c-3.012-1.209-4.499-3.056-4.499-5.578 0-1.668.652-3.02 1.996-4.05 1.272-.958 2.902-1.456 4.899-1.456 1.634 0 3.048.355 4.246 1.101.946.567 1.704 1.313 2.25 2.202l-3.301 2.414-.542-.567c-.216-.247-.473-.427-.726-.602a4.13 4.13 0 0 0-2.139-.603c-1.308 0-1.96.499-1.96 1.492 0 .638.472 1.173 1.414 1.6.326.144.799.319 1.414.535l.835.283.836.283c3.011 1.101 4.499 2.949 4.499 5.47 0 1.776-.689 3.196-2.103 4.297-1.341 1.065-3.085 1.6-5.188 1.6-1.703 0-3.227-.391-4.572-1.137-1.052-.602-1.887-1.349-2.502-2.31l-.009-.008zm28.009-16.059c2.902 0 5.335.926 7.295 2.805s2.938 4.193 2.938 6.998-.941 5.151-2.864 6.962-4.39 2.737-7.364 2.737-5.408-.922-7.332-2.737-2.865-4.157-2.865-6.962.978-5.151 2.939-7.034c1.923-1.847 4.352-2.773 7.258-2.773l-.005.004zm0 15.17c1.525 0 2.759-.499 3.737-1.492.979-1.029 1.488-2.31 1.488-3.87s-.509-2.877-1.488-3.906-2.249-1.564-3.737-1.564-2.758.499-3.736 1.528-1.451 2.346-1.451 3.942.509 2.841 1.487 3.87c.978.994 2.213 1.492 3.7 1.492zm15.784-10.73h-2.034v-3.978h2.034v-.674c0-2.238.689-3.942 2.103-5.043 1.198-.926 2.832-1.384 4.898-1.384l1.634.072v4.122h-.147l-.215-.036c-.253-.036-.437-.036-.616-.036-1.777 0-2.649.818-2.649 2.414v.567h3.301v3.978h-3.301v14.599H205.2V28.775zm14.332-7.884h4.935v3.906h3.558v3.978h-3.558v7.174c0 1.313.216 2.238.689 2.701.399.427 1.088.638 2.103.638l.909-.036v4.193c-.51.108-1.235.175-2.14.175-4.352 0-6.532-2.522-6.532-7.533v-7.318h-1.997v-3.978h2.033v-3.906.004z"/></g><path d="M52.416 18.445c.603.591.603 1.544 0 2.135l-1.634 1.6-2.722 2.665-2.722 2.665-2.722 2.665-2.722 2.665-1.634 1.6c-.603.59-1.577.59-2.18 0l-1.634-1.6-2.722-2.665-2.722-2.665-2.722-2.665-2.722-2.665-1.634-1.6c-.603-.59-.603-1.548 0-2.135l1.634-1.6 2.722-2.665 2.722-2.665 2.722-2.665 2.722-2.665 1.634-1.6c.603-.59 1.577-.59 2.18 0l1.634 1.6 2.722 2.665 2.722 2.665 2.722 2.665 2.722 2.665 1.634 1.6z" fill="#6219a3"/><path d="M73.643 39.229c.913.894.913 2.346 0 3.244l-1.068 1.045-2.722 2.665-2.722 2.665-2.722 2.665-2.722 2.665-1.068 1.045c-.913.894-2.396.894-3.313 0l-1.068-1.045-2.722-2.665-2.722-2.665-2.722-2.665-2.722-2.665-1.068-1.045a2.26 2.26 0 0 1 0-3.24l1.068-1.045 2.722-2.665 2.722-2.665 2.722-2.665 2.722-2.665 1.068-1.045c.913-.894 2.396-.894 3.313 0l1.068 1.045 2.722 2.665 2.722 2.665 2.722 2.665 2.722 2.665 1.068 1.045v-.004z" fill="#009245"/><g fill="#ce0d29"><path d="M30.059 39.229a2.26 2.26 0 0 1 0 3.24l-1.068 1.045-2.722 2.665-2.722 2.665-2.722 2.665-2.722 2.665-1.068 1.045a2.38 2.38 0 0 1-3.309 0l-3.794-3.715-2.722-2.665-2.722-2.665-2.722-2.665-1.068-1.045a2.26 2.26 0 0 1 0-3.24l1.068-1.045 2.722-2.665 9.239-9.045a2.38 2.38 0 0 1 3.309 0l1.068 1.045 2.722 2.665 2.722 2.665 2.722 2.665 2.722 2.665 1.068 1.045v.008zM56.91 58.851l-.681.666-.681.666-2.722-2.665-2.726-2.669-2.722-2.665-2.722-2.669-2.726-2.665-2.722-2.665-2.726-2.669-2.722-2.665-2.722-2.669-2.726-2.665-2.722-2.665.68-.666v-.004l.681-.666 2.726 2.669L56.91 58.851z"/></g><path d="M35.124 1.52l-2.722 2.665-2.722 2.665-2.726 2.669-2.722 2.665-2.726 2.665-2.722 2.669-1.357 1.329-.685.67-.681.666-.681.666-4.768 4.668-2.726 2.665-2.722 2.669-1.361-1.333 2.722-2.669 2.726-2.665 2.722-2.665 1.365-1.337.681-.666.676-.666.685-.666.685-.674 1.357-1.325 2.722-2.669 2.726-2.665 2.722-2.665 2.722-2.669 2.726-2.665L33.763.184l1.361 1.337z" fill="#009245"/><g fill="#fff"><path d="M26.065 25.013l5.628-11.67 5.473 9.037v4.532l-5.212-8.247-3.798 8.407-2.091-2.059z"/><path d="M48.393 24.885l-5.632-11.686-5.595 9.181v4.692l5.326-8.431 3.766 8.335 2.136-2.091z"/></g></g><defs><clipPath id="A"><path fill="#fff" d="M0 0h231v60H0z"/></clipPath></defs></svg>